<svg xmlns="http://www.w3.org/2000/svg" viewBox="0 0 1200 700" role="img" aria-label="Demolition works">
  <defs>
    <linearGradient id="sky" x1="0" y1="0" x2="0" y2="1">
      <stop offset="0" stop-color="#dfe7ef"/>
      <stop offset="1" stop-color="#f4f6f8"/>
    </linearGradient>
    <linearGradient id="steel" x1="0" y1="0" x2="1" y2="1">
      <stop offset="0" stop-color="#f6d27a"/>
      <stop offset="1" stop-color="#c8942a"/>
    </linearGradient>
  </defs>
  <rect width="1200" height="700" fill="url(#sky)"/>
  <rect x="0" y="520" width="1200" height="180" fill="#c7b8a2"/>
  <rect x="120" y="170" width="300" height="320" fill="#8f939a"/>
  <rect x="450" y="210" width="220" height="280" fill="#9ea3aa"/>
  <rect x="700" y="260" width="170" height="230" fill="#aab0b6"/>
  <polygon points="240,300 430,470 120,470" fill="#6e737b"/>
  <polygon points="560,340 690,490 430,490" fill="#777c84"/>
  <polygon points="790,380 900,490 670,490" fill="#848a92"/>
  <rect x="790" y="330" width="260" height="36" rx="10" fill="url(#steel)"/>
  <rect x="1010" y="230" width="44" height="110" rx="10" fill="url(#steel)"/>
  <rect x="1024" y="170" width="16" height="70" fill="#565b63"/>
  <circle cx="950" cy="510" r="54" fill="#3f444b"/>
  <circle cx="950" cy="510" r="26" fill="#5e646c"/>
  <rect x="890" y="420" width="170" height="36" rx="12" fill="#f0b93f"/>
  <rect x="820" y="396" width="100" height="30" rx="10" fill="#f0b93f"/>
  <rect x="848" y="352" width="40" height="56" rx="8" fill="#d7dde4"/>
  <circle cx="1040" cy="514" r="44" fill="#4a4f57"/>
  <circle cx="1040" cy="514" r="20" fill="#656b73"/>
  <circle cx="1032" cy="286" r="38" fill="#5d6168"/>
  <polygon points="240,490 320,520 190,520" fill="#757b83"/>
  <polygon points="570,490 660,520 510,520" fill="#80868e"/>
  <polygon points="790,490 860,520 740,520" fill="#8c9299"/>
</svg>
