<svg xmlns="http://www.w3.org/2000/svg" viewBox="0 0 1200 700" role="img" aria-label="Gold medals">
  <defs>
    <linearGradient id="bg" x1="0" y1="0" x2="1" y2="1">
      <stop offset="0" stop-color="#0b0b0d"/>
      <stop offset="1" stop-color="#1b1b20"/>
    </linearGradient>
    <radialGradient id="gold" cx="40%" cy="30%" r="70%">
      <stop offset="0" stop-color="#fff4c7"/>
      <stop offset="0.35" stop-color="#f3d37a"/>
      <stop offset="0.7" stop-color="#c99531"/>
      <stop offset="1" stop-color="#8a5f12"/>
    </radialGradient>
    <linearGradient id="ribbon" x1="0" y1="0" x2="0" y2="1">
      <stop offset="0" stop-color="#6f0f18"/>
      <stop offset="1" stop-color="#b11b2a"/>
    </linearGradient>
  </defs>
  <rect width="1200" height="700" fill="url(#bg)"/>
  <g opacity="0.28">
    <circle cx="150" cy="120" r="3" fill="#f8d781"/>
    <circle cx="1050" cy="80" r="4" fill="#f8d781"/>
    <circle cx="1020" cy="640" r="3" fill="#f8d781"/>
    <circle cx="170" cy="580" r="2.5" fill="#f8d781"/>
  </g>
  <g transform="translate(165 150)">
    <path d="M130 0l70 0-45 165-65 0z" fill="url(#ribbon)"/>
    <path d="M230 0l70 0-30 165-65 0z" fill="#85101c"/>
    <circle cx="190" cy="260" r="130" fill="url(#gold)"/>
    <circle cx="190" cy="260" r="108" fill="none" stroke="#f7dfa0" stroke-width="10"/>
    <text x="190" y="282" fill="#5c3e0b" text-anchor="middle" font-size="84" font-family="Georgia, serif" font-weight="700">1</text>
  </g>
  <g transform="translate(470 180) scale(0.88)">
    <path d="M130 0l70 0-45 165-65 0z" fill="url(#ribbon)"/>
    <path d="M230 0l70 0-30 165-65 0z" fill="#85101c"/>
    <circle cx="190" cy="260" r="130" fill="url(#gold)"/>
    <circle cx="190" cy="260" r="108" fill="none" stroke="#f7dfa0" stroke-width="10"/>
    <text x="190" y="282" fill="#5c3e0b" text-anchor="middle" font-size="84" font-family="Georgia, serif" font-weight="700">2</text>
  </g>
  <g transform="translate(720 215) scale(0.75)">
    <path d="M130 0l70 0-45 165-65 0z" fill="url(#ribbon)"/>
    <path d="M230 0l70 0-30 165-65 0z" fill="#85101c"/>
    <circle cx="190" cy="260" r="130" fill="url(#gold)"/>
    <circle cx="190" cy="260" r="108" fill="none" stroke="#f7dfa0" stroke-width="10"/>
    <text x="190" y="282" fill="#5c3e0b" text-anchor="middle" font-size="84" font-family="Georgia, serif" font-weight="700">3</text>
  </g>
</svg>
